# xmcd CD database file
#
# Track frame offsets:
#	188
#	34198
#	60945
#	93468
#	124068
#	157723
#	186433
#	222845
#	254683
#
# Disc length: 3722 seconds
#
# Revision: 1
# Processed by: cddbd v1.5.2PL0 Copyright (c) Steve Scherf et al.
# Submitted via: CDex 1.79
#
DISCID=770e8809
DTITLE=Bill Holman - My Instrument Is The Orchestra
DYEAR=1994
DGENRE=Jazz
TTITLE0=Gonzo
TTITLE1=Any Dude'll Do
TTITLE2=Blue Daniel
TTITLE3=Bye-Ya
TTITLE4=View From The Side
TTITLE5=Sometime
TTITLE6=St. Thomas
TTITLE7=If You Could See Me Now
TTITLE8=Marmaduke
EXTD=YEAR: 1994
EXTT0=
EXTT1=
EXTT2=
EXTT3=
EXTT4=
EXTT5=
EXTT6=
EXTT7=
EXTT8=
PLAYORDER=
